<svg width="1930" height="1420" viewBox="0 0 1930 1420" fill="none" xmlns="http://www.w3.org/2000/svg">
<path d="M174.091 1203V1109.91H211.364C218.212 1109.91 223.924 1110.92 228.5 1112.95C233.076 1114.98 236.515 1117.8 238.818 1121.41C241.121 1124.98 242.273 1129.11 242.273 1133.77C242.273 1137.41 241.545 1140.61 240.091 1143.36C238.636 1146.09 236.636 1148.33 234.091 1150.09C231.576 1151.82 228.697 1153.05 225.455 1153.77V1154.68C229 1154.83 232.318 1155.83 235.409 1157.68C238.53 1159.53 241.061 1162.12 243 1165.45C244.939 1168.76 245.909 1172.7 245.909 1177.27C245.909 1182.21 244.682 1186.62 242.227 1190.5C239.803 1194.35 236.212 1197.39 231.455 1199.64C226.697 1201.88 220.833 1203 213.864 1203H174.091ZM193.773 1186.91H209.818C215.303 1186.91 219.303 1185.86 221.818 1183.77C224.333 1181.65 225.591 1178.83 225.591 1175.32C225.591 1172.74 224.97 1170.47 223.727 1168.5C222.485 1166.53 220.712 1164.98 218.409 1163.86C216.136 1162.74 213.424 1162.18 210.273 1162.18H193.773V1186.91ZM193.773 1148.86H208.364C211.061 1148.86 213.455 1148.39 215.545 1147.45C217.667 1146.48 219.333 1145.12 220.545 1143.36C221.788 1141.61 222.409 1139.5 222.409 1137.05C222.409 1133.68 221.212 1130.97 218.818 1128.91C216.455 1126.85 213.091 1125.82 208.727 1125.82H193.773V1148.86ZM258.716 1203V1109.91H295.443C302.473 1109.91 308.473 1111.17 313.443 1113.68C318.443 1116.17 322.246 1119.7 324.852 1124.27C327.489 1128.82 328.807 1134.17 328.807 1140.32C328.807 1146.5 327.473 1151.82 324.807 1156.27C322.14 1160.7 318.277 1164.09 313.216 1166.45C308.186 1168.82 302.095 1170 294.943 1170H270.352V1154.18H291.761C295.519 1154.18 298.64 1153.67 301.125 1152.64C303.61 1151.61 305.458 1150.06 306.67 1148C307.913 1145.94 308.534 1143.38 308.534 1140.32C308.534 1137.23 307.913 1134.62 306.67 1132.5C305.458 1130.38 303.595 1128.77 301.08 1127.68C298.595 1126.56 295.458 1126 291.67 1126H278.398V1203H258.716ZM308.989 1160.64L332.125 1203H310.398L287.761 1160.64H308.989ZM358.761 1203H337.67L369.807 1109.91H395.17L427.261 1203H406.17L382.852 1131.18H382.125L358.761 1203ZM357.443 1166.41H407.261V1181.77H357.443V1166.41ZM458.148 1109.91V1203H438.466V1109.91H458.148ZM552.205 1109.91V1203H535.205L494.705 1144.41H494.023V1203H474.341V1109.91H491.614L531.795 1168.45H532.614V1109.91H552.205ZM588.148 1109.91V1203H568.466V1109.91H588.148ZM620.386 1203H599.295L631.432 1109.91H656.795L688.886 1203H667.795L644.477 1131.18H643.75L620.386 1203ZM619.068 1166.41H668.886V1181.77H619.068V1166.41ZM777.852 1142.5H757.943C757.58 1139.92 756.837 1137.64 755.716 1135.64C754.595 1133.61 753.155 1131.88 751.398 1130.45C749.64 1129.03 747.61 1127.94 745.307 1127.18C743.034 1126.42 740.564 1126.05 737.898 1126.05C733.08 1126.05 728.883 1127.24 725.307 1129.64C721.731 1132 718.958 1135.45 716.989 1140C715.019 1144.52 714.034 1150 714.034 1156.45C714.034 1163.09 715.019 1168.67 716.989 1173.18C718.989 1177.7 721.777 1181.11 725.352 1183.41C728.928 1185.71 733.064 1186.86 737.761 1186.86C740.398 1186.86 742.837 1186.52 745.08 1185.82C747.352 1185.12 749.367 1184.11 751.125 1182.77C752.883 1181.41 754.337 1179.76 755.489 1177.82C756.67 1175.88 757.489 1173.67 757.943 1171.18L777.852 1171.27C777.337 1175.55 776.049 1179.67 773.989 1183.64C771.958 1187.58 769.216 1191.11 765.761 1194.23C762.337 1197.32 758.246 1199.77 753.489 1201.59C748.761 1203.38 743.413 1204.27 737.443 1204.27C729.14 1204.27 721.716 1202.39 715.17 1198.64C708.655 1194.88 703.504 1189.44 699.716 1182.32C695.958 1175.2 694.08 1166.58 694.08 1156.45C694.08 1146.3 695.989 1137.67 699.807 1130.55C703.625 1123.42 708.807 1118 715.352 1114.27C721.898 1110.52 729.261 1108.64 737.443 1108.64C742.837 1108.64 747.837 1109.39 752.443 1110.91C757.08 1112.42 761.186 1114.64 764.761 1117.55C768.337 1120.42 771.246 1123.95 773.489 1128.14C775.761 1132.32 777.216 1137.11 777.852 1142.5Z" fill="#30A6AC"/>
<g filter="url(#filter0_i_77_758)">
<path d="M979.091 1203V1109.91H1041.82V1126.14H998.773V1148.32H1038.59V1164.55H998.773V1186.77H1042V1203H979.091ZM1135.33 1109.91V1203H1118.33L1077.83 1144.41H1077.15V1203H1057.47V1109.91H1074.74L1114.92 1168.45H1115.74V1109.91H1135.33ZM1213.32 1140C1212.68 1137.79 1211.79 1135.83 1210.64 1134.14C1209.48 1132.41 1208.08 1130.95 1206.41 1129.77C1204.77 1128.56 1202.89 1127.64 1200.77 1127C1198.68 1126.36 1196.36 1126.05 1193.82 1126.05C1189.06 1126.05 1184.88 1127.23 1181.27 1129.59C1177.7 1131.95 1174.91 1135.39 1172.91 1139.91C1170.91 1144.39 1169.91 1149.88 1169.91 1156.36C1169.91 1162.85 1170.89 1168.36 1172.86 1172.91C1174.83 1177.45 1177.62 1180.92 1181.23 1183.32C1184.83 1185.68 1189.09 1186.86 1194 1186.86C1198.45 1186.86 1202.26 1186.08 1205.41 1184.5C1208.59 1182.89 1211.02 1180.64 1212.68 1177.73C1214.38 1174.82 1215.23 1171.38 1215.23 1167.41L1219.23 1168H1195.23V1153.18H1234.18V1164.91C1234.18 1173.09 1232.45 1180.12 1229 1186C1225.55 1191.85 1220.79 1196.36 1214.73 1199.55C1208.67 1202.7 1201.73 1204.27 1193.91 1204.27C1185.18 1204.27 1177.52 1202.35 1170.91 1198.5C1164.3 1194.62 1159.15 1189.12 1155.45 1182C1151.79 1174.85 1149.95 1166.36 1149.95 1156.55C1149.95 1149 1151.05 1142.27 1153.23 1136.36C1155.44 1130.42 1158.53 1125.39 1162.5 1121.27C1166.47 1117.15 1171.09 1114.02 1176.36 1111.86C1181.64 1109.71 1187.35 1108.64 1193.5 1108.64C1198.77 1108.64 1203.68 1109.41 1208.23 1110.95C1212.77 1112.47 1216.8 1114.62 1220.32 1117.41C1223.86 1120.2 1226.76 1123.52 1229 1127.36C1231.24 1131.18 1232.68 1135.39 1233.32 1140H1213.32ZM1268.65 1109.91V1203H1248.97V1109.91H1268.65ZM1362.7 1109.91V1203H1345.7L1305.2 1144.41H1304.52V1203H1284.84V1109.91H1302.11L1342.3 1168.45H1343.11V1109.91H1362.7ZM1378.97 1203V1109.91H1441.69V1126.14H1398.65V1148.32H1438.47V1164.55H1398.65V1186.77H1441.88V1203H1378.97ZM1457.34 1203V1109.91H1520.07V1126.14H1477.02V1148.32H1516.84V1164.55H1477.02V1186.77H1520.25V1203H1457.34ZM1535.72 1203V1109.91H1572.44C1579.47 1109.91 1585.47 1111.17 1590.44 1113.68C1595.44 1116.17 1599.25 1119.7 1601.85 1124.27C1604.49 1128.82 1605.81 1134.17 1605.81 1140.32C1605.81 1146.5 1604.47 1151.82 1601.81 1156.27C1599.14 1160.7 1595.28 1164.09 1590.22 1166.45C1585.19 1168.82 1579.09 1170 1571.94 1170H1547.35V1154.18H1568.76C1572.52 1154.18 1575.64 1153.67 1578.12 1152.64C1580.61 1151.61 1582.46 1150.06 1583.67 1148C1584.91 1145.94 1585.53 1143.38 1585.53 1140.32C1585.53 1137.23 1584.91 1134.62 1583.67 1132.5C1582.46 1130.38 1580.59 1128.77 1578.08 1127.68C1575.59 1126.56 1572.46 1126 1568.67 1126H1555.4V1203H1535.72ZM1585.99 1160.64L1609.12 1203H1587.4L1564.76 1160.64H1585.99ZM1639.4 1109.91V1203H1619.72V1109.91H1639.4ZM1733.45 1109.91V1203H1716.45L1675.95 1144.41H1675.27V1203H1655.59V1109.91H1672.86L1713.05 1168.45H1713.86V1109.91H1733.45ZM1811.44 1140C1810.81 1137.79 1809.91 1135.83 1808.76 1134.14C1807.61 1132.41 1806.2 1130.95 1804.53 1129.77C1802.9 1128.56 1801.02 1127.64 1798.9 1127C1796.81 1126.36 1794.49 1126.05 1791.94 1126.05C1787.19 1126.05 1783 1127.23 1779.4 1129.59C1775.82 1131.95 1773.03 1135.39 1771.03 1139.91C1769.03 1144.39 1768.03 1149.88 1768.03 1156.36C1768.03 1162.85 1769.02 1168.36 1770.99 1172.91C1772.96 1177.45 1775.75 1180.92 1779.35 1183.32C1782.96 1185.68 1787.22 1186.86 1792.12 1186.86C1796.58 1186.86 1800.38 1186.08 1803.53 1184.5C1806.72 1182.89 1809.14 1180.64 1810.81 1177.73C1812.5 1174.82 1813.35 1171.38 1813.35 1167.41L1817.35 1168H1793.35V1153.18H1832.31V1164.91C1832.31 1173.09 1830.58 1180.12 1827.12 1186C1823.67 1191.85 1818.91 1196.36 1812.85 1199.55C1806.79 1202.7 1799.85 1204.27 1792.03 1204.27C1783.31 1204.27 1775.64 1202.35 1769.03 1198.5C1762.43 1194.62 1757.28 1189.12 1753.58 1182C1749.91 1174.85 1748.08 1166.36 1748.08 1156.55C1748.08 1149 1749.17 1142.27 1751.35 1136.36C1753.56 1130.42 1756.66 1125.39 1760.62 1121.27C1764.59 1117.15 1769.22 1114.02 1774.49 1111.86C1779.76 1109.71 1785.47 1108.64 1791.62 1108.64C1796.9 1108.64 1801.81 1109.41 1806.35 1110.95C1810.9 1112.47 1814.93 1114.62 1818.44 1117.41C1821.99 1120.2 1824.88 1123.52 1827.12 1127.36C1829.37 1131.18 1830.81 1135.39 1831.44 1140H1811.44Z" fill="#30A6AC"/>
</g>
<mask id="mask0_77_758" style="mask-type:alpha" maskUnits="userSpaceOnUse" x="360" y="237" width="1024" height="995">
<path d="M840.279 629.259C849.464 628.111 862.922 596.571 868.502 580.945C873.127 606.138 879.027 656.526 865.632 656.526C852.238 656.526 847.614 669.921 846.976 676.618H780.005C789.094 671.993 807.272 661.501 807.272 656.526C807.272 651.551 799.299 637.551 795.313 631.173C806.474 631.013 831.094 630.408 840.279 629.259Z" fill="#29A6AD"/>
<path d="M903.529 629.738C894.344 628.59 880.886 597.05 875.305 581.423C870.681 606.617 864.781 657.005 878.175 657.005C891.57 657.005 896.194 670.399 896.832 677.096H963.803C954.714 672.472 936.536 661.98 936.536 657.005C936.536 652.03 944.509 638.03 948.495 631.651C937.333 631.492 912.713 630.886 903.529 629.738Z" fill="#29A6AD"/>
<path d="M907.356 738.805C898.171 739.953 884.713 771.494 879.132 787.12C874.508 761.926 868.608 711.538 882.002 711.538C895.397 711.538 900.021 698.144 900.659 691.447H967.63C958.541 696.071 940.363 706.563 940.363 711.538C940.363 716.513 948.336 730.514 952.322 736.892C941.16 737.051 916.54 737.657 907.356 738.805Z" fill="#29A6AD"/>
<path d="M832.96 734.94C843.07 736.18 857.885 770.243 864.028 787.12C869.118 759.911 877.984 709.625 863.24 709.625C848.496 709.625 841.034 691.026 840.332 683.793H766.61C776.615 688.787 796.626 700.119 796.626 705.492C796.626 710.865 787.849 725.985 783.461 732.873C795.748 733.046 822.849 733.7 832.96 734.94Z" fill="#29A6AD"/>
<path d="M888.64 266.18C888.64 276.773 880.053 285.361 869.46 285.361C858.867 285.361 850.279 276.773 850.279 266.18C850.279 255.587 858.867 247 869.46 247C880.053 247 888.64 255.587 888.64 266.18Z" stroke="#29A6AD" stroke-width="20"/>
<path d="M802.534 314.974C802.534 325.567 793.946 334.154 783.353 334.154C772.76 334.154 764.173 325.567 764.173 314.974C764.173 304.381 772.76 295.793 783.353 295.793C793.946 295.793 802.534 304.381 802.534 314.974Z" stroke="#29A6AD" stroke-width="20"/>
<path d="M682.942 359.94C682.942 370.231 674.233 379.12 662.805 379.12C651.377 379.12 642.668 370.231 642.668 359.94C642.668 349.649 651.377 340.76 662.805 340.76C674.233 340.76 682.942 349.649 682.942 359.94Z" stroke="#29A6AD" stroke-width="20"/>
<path d="M630.323 421.171C630.323 431.764 621.735 440.351 611.142 440.351C600.549 440.351 591.962 431.764 591.962 421.171C591.962 410.578 600.549 401.991 611.142 401.991C621.735 401.991 630.323 410.578 630.323 421.171Z" stroke="#29A6AD" stroke-width="20"/>
<path d="M840.803 506.32C840.803 516.913 832.216 525.5 821.623 525.5C811.03 525.5 802.442 516.913 802.442 506.32C802.442 495.727 811.03 487.14 821.623 487.14C832.216 487.14 840.803 495.727 840.803 506.32Z" stroke="#29A6AD" stroke-width="20"/>
<path d="M911.169 686.185C911.169 707.719 893.159 725.981 869.938 725.981C846.717 725.981 828.707 707.719 828.707 686.185C828.707 664.651 846.717 646.389 869.938 646.389C893.159 646.389 911.169 664.651 911.169 686.185Z" stroke="#29A6AD" stroke-width="40"/>
<path d="M714.515 463.267C714.515 473.86 705.928 482.447 695.335 482.447C684.742 482.447 676.154 473.86 676.154 463.267C676.154 452.674 684.742 444.087 695.335 444.087C705.928 444.087 714.515 452.674 714.515 463.267Z" stroke="#29A6AD" stroke-width="20"/>
<path d="M516.471 469.964C516.471 481.392 507.582 490.101 497.291 490.101C486.999 490.101 478.11 481.392 478.11 469.964C478.11 458.536 486.999 449.827 497.291 449.827C507.582 449.827 516.471 458.536 516.471 469.964Z" stroke="#29A6AD" stroke-width="20"/>
<path d="M437.063 559.897C437.063 570.337 428.415 579.077 417.404 579.077C406.393 579.077 397.745 570.337 397.745 559.897C397.745 549.457 406.393 540.717 417.404 540.717C428.415 540.717 437.063 549.457 437.063 559.897Z" stroke="#29A6AD" stroke-width="20"/>
<path d="M410.274 676.618C410.274 686.909 401.565 695.798 390.137 695.798C378.709 695.798 370 686.909 370 676.618C370 666.327 378.709 657.438 390.137 657.438C401.565 657.438 410.274 666.327 410.274 676.618Z" stroke="#29A6AD" stroke-width="20"/>
<path d="M533.693 583.815C533.693 595.243 524.804 603.952 514.512 603.952C504.221 603.952 495.332 595.243 495.332 583.815C495.332 572.387 504.221 563.678 514.512 563.678C524.804 563.678 533.693 572.387 533.693 583.815Z" stroke="#29A6AD" stroke-width="20"/>
<path d="M573.351 528.325C573.351 539.685 564.356 548.894 553.259 548.894C542.163 548.894 533.168 539.685 533.168 528.325C533.168 516.964 542.163 507.755 553.259 507.755C564.356 507.755 573.351 516.964 573.351 528.325Z" fill="#29A6AD"/>
<path d="M593.443 632.608C593.443 643.968 584.447 653.178 573.351 653.178C562.255 653.178 553.26 643.968 553.26 632.608C553.26 621.248 562.255 612.038 573.351 612.038C584.447 612.038 593.443 621.248 593.443 632.608Z" fill="#29A6AD"/>
<path d="M750.346 722.541C750.346 733.901 741.351 743.111 730.254 743.111C719.158 743.111 710.163 733.901 710.163 722.541C710.163 711.181 719.158 701.971 730.254 701.971C741.351 701.971 750.346 711.181 750.346 722.541Z" fill="#29A6AD"/>
<path d="M750.346 633.565C750.346 644.925 741.351 654.135 730.254 654.135C719.158 654.135 710.163 644.925 710.163 633.565C710.163 622.205 719.158 612.995 730.254 612.995C741.351 612.995 750.346 622.205 750.346 633.565Z" fill="#29A6AD"/>
<mask id="path-22-inside-1_77_758" fill="white">
<rect x="860.37" y="285.793" width="18.1779" height="375.995" rx="2"/>
</mask>
<rect x="860.37" y="285.793" width="18.1779" height="375.995" rx="2" fill="#29A6AD" stroke="#29A6AD" stroke-width="18.1779" mask="url(#path-22-inside-1_77_758)"/>
<mask id="path-23-inside-2_77_758" fill="white">
<rect width="18.1779" height="439.139" rx="2" transform="matrix(1 0 0 -1 862.283 1180.34)"/>
</mask>
<rect width="18.1779" height="439.139" rx="2" transform="matrix(1 0 0 -1 862.283 1180.34)" fill="#29A6AD" stroke="#29A6AD" stroke-width="18.1779" mask="url(#path-23-inside-2_77_758)"/>
<mask id="path-24-inside-3_77_758" fill="white">
<rect x="812.533" y="523.062" width="19.1346" height="89.9327" rx="2"/>
</mask>
<rect x="812.533" y="523.062" width="19.1346" height="89.9327" rx="2" fill="#29A6AD" stroke="#29A6AD" stroke-width="19.1346" mask="url(#path-24-inside-3_77_758)"/>
<mask id="path-25-inside-4_77_758" fill="white">
<rect x="684.332" y="478.096" width="18.1779" height="54.5336" rx="2"/>
</mask>
<rect x="684.332" y="478.096" width="18.1779" height="54.5336" rx="2" fill="#29A6AD" stroke="#29A6AD" stroke-width="18.1779" mask="url(#path-25-inside-4_77_758)"/>
<mask id="path-26-inside-5_77_758" fill="white">
<rect x="774.265" y="332.673" width="18.1779" height="55.4904" rx="2"/>
</mask>
<rect x="774.265" y="332.673" width="18.1779" height="55.4904" rx="2" fill="#29A6AD" stroke="#29A6AD" stroke-width="18.1779" mask="url(#path-26-inside-5_77_758)"/>
<mask id="path-27-inside-6_77_758" fill="white">
<rect x="773.848" y="386.791" width="17.2374" height="136.127" rx="2" transform="rotate(-43.8472 773.848 386.791)"/>
</mask>
<rect x="773.848" y="386.791" width="17.2374" height="136.127" rx="2" transform="rotate(-43.8472 773.848 386.791)" fill="#29A6AD" stroke="#29A6AD" stroke-width="17.2374" mask="url(#path-27-inside-6_77_758)"/>
<mask id="path-28-inside-7_77_758" fill="white">
<rect x="666.299" y="383.432" width="17.2374" height="137.693" rx="2" transform="rotate(-46.3406 666.299 383.432)"/>
</mask>
<rect x="666.299" y="383.432" width="17.2374" height="137.693" rx="2" transform="rotate(-46.3406 666.299 383.432)" fill="#29A6AD" stroke="#29A6AD" stroke-width="17.2374" mask="url(#path-28-inside-7_77_758)"/>
<mask id="path-29-inside-8_77_758" fill="white">
<rect x="567.358" y="475.968" width="17.2374" height="137.693" rx="2" transform="rotate(-45.3142 567.358 475.968)"/>
</mask>
<rect x="567.358" y="475.968" width="17.2374" height="137.693" rx="2" transform="rotate(-45.3142 567.358 475.968)" fill="#29A6AD" stroke="#29A6AD" stroke-width="17.2374" mask="url(#path-29-inside-8_77_758)"/>
<mask id="path-30-inside-9_77_758" fill="white">
<rect x="510.397" y="481.764" width="17.2374" height="70.7787" rx="2" transform="rotate(-90.6337 510.397 481.764)"/>
</mask>
<rect x="510.397" y="481.764" width="17.2374" height="70.7787" rx="2" transform="rotate(-90.6337 510.397 481.764)" fill="#29A6AD" stroke="#29A6AD" stroke-width="17.2374" mask="url(#path-30-inside-9_77_758)"/>
<mask id="path-31-inside-10_77_758" fill="white">
<rect x="524.748" y="590.832" width="17.2374" height="70.7787" rx="2" transform="rotate(-90.6337 524.748 590.832)"/>
</mask>
<rect x="524.748" y="590.832" width="17.2374" height="70.7787" rx="2" transform="rotate(-90.6337 524.748 590.832)" fill="#29A6AD" stroke="#29A6AD" stroke-width="17.2374" mask="url(#path-31-inside-10_77_758)"/>
<mask id="path-32-inside-11_77_758" fill="white">
<rect x="560.147" y="537.255" width="17.2374" height="70.7787" rx="2" transform="rotate(-90.6337 560.147 537.255)"/>
</mask>
<rect x="560.147" y="537.255" width="17.2374" height="70.7787" rx="2" transform="rotate(-90.6337 560.147 537.255)" fill="#29A6AD" stroke="#29A6AD" stroke-width="17.2374" mask="url(#path-32-inside-11_77_758)"/>
<mask id="path-33-inside-12_77_758" fill="white">
<rect x="664.431" y="572.654" width="17.2374" height="70.7787" rx="2" transform="rotate(-90.6337 664.431 572.654)"/>
</mask>
<rect x="664.431" y="572.654" width="17.2374" height="70.7787" rx="2" transform="rotate(-90.6337 664.431 572.654)" fill="#29A6AD" stroke="#29A6AD" stroke-width="17.2374" mask="url(#path-33-inside-12_77_758)"/>
<mask id="path-34-inside-13_77_758" fill="white">
<rect x="411.854" y="688.418" width="17.2374" height="402.848" rx="2" transform="rotate(-90.6337 411.854 688.418)"/>
</mask>
<rect x="411.854" y="688.418" width="17.2374" height="402.848" rx="2" transform="rotate(-90.6337 411.854 688.418)" fill="#29A6AD" stroke="#29A6AD" stroke-width="17.2374" mask="url(#path-34-inside-13_77_758)"/>
<mask id="path-35-inside-14_77_758" fill="white">
<rect x="581.993" y="584.436" width="17.2374" height="137.693" rx="2" transform="rotate(-45.3142 581.993 584.436)"/>
</mask>
<rect x="581.993" y="584.436" width="17.2374" height="137.693" rx="2" transform="rotate(-45.3142 581.993 584.436)" fill="#29A6AD" stroke="#29A6AD" stroke-width="17.2374" mask="url(#path-35-inside-14_77_758)"/>
<mask id="path-36-inside-15_77_758" fill="white">
<rect x="421.994" y="576.744" width="17.2374" height="153.338" rx="2" transform="rotate(-45.3142 421.994 576.744)"/>
</mask>
<rect x="421.994" y="576.744" width="17.2374" height="153.338" rx="2" transform="rotate(-45.3142 421.994 576.744)" fill="#29A6AD" stroke="#29A6AD" stroke-width="17.2374" mask="url(#path-36-inside-15_77_758)"/>
<mask id="path-37-inside-16_77_758" fill="white">
<rect x="683.532" y="530.806" width="17.2374" height="194.575" rx="2" transform="rotate(-46.3406 683.532 530.806)"/>
</mask>
<rect x="683.532" y="530.806" width="17.2374" height="194.575" rx="2" transform="rotate(-46.3406 683.532 530.806)" fill="#29A6AD" stroke="#29A6AD" stroke-width="17.2374" mask="url(#path-37-inside-16_77_758)"/>
<mask id="path-38-inside-17_77_758" fill="white">
<rect x="610.663" y="439.86" width="17.2374" height="105.778" rx="2" transform="rotate(-46.3406 610.663 439.86)"/>
</mask>
<rect x="610.663" y="439.86" width="17.2374" height="105.778" rx="2" transform="rotate(-46.3406 610.663 439.86)" fill="#29A6AD" stroke="#29A6AD" stroke-width="17.2374" mask="url(#path-38-inside-17_77_758)"/>
<mask id="path-39-inside-18_77_758" fill="white">
<rect x="760.455" y="465.294" width="17.2374" height="143.666" rx="2" transform="rotate(-2.67592 760.455 465.294)"/>
</mask>
<rect x="760.455" y="465.294" width="17.2374" height="143.666" rx="2" transform="rotate(-2.67592 760.455 465.294)" fill="#29A6AD" stroke="#29A6AD" stroke-width="17.2374" mask="url(#path-39-inside-18_77_758)"/>
<path d="M939.372 328.368C939.372 338.961 947.959 347.548 958.552 347.548C969.145 347.548 977.732 338.961 977.732 328.368C977.732 317.775 969.145 309.188 958.552 309.188C947.959 309.188 939.372 317.775 939.372 328.368Z" stroke="#29A6AD" stroke-width="20"/>
<path d="M1058.96 373.334C1058.96 383.626 1067.67 392.515 1079.1 392.515C1090.53 392.515 1099.24 383.626 1099.24 373.334C1099.24 363.043 1090.53 354.154 1079.1 354.154C1067.67 354.154 1058.96 363.043 1058.96 373.334Z" stroke="#29A6AD" stroke-width="20"/>
<path d="M1111.58 434.565C1111.58 445.158 1120.17 453.745 1130.76 453.745C1141.36 453.745 1149.94 445.158 1149.94 434.565C1149.94 423.972 1141.36 415.385 1130.76 415.385C1120.17 415.385 1111.58 423.972 1111.58 434.565Z" stroke="#29A6AD" stroke-width="20"/>
<path d="M900.985 507.276C900.985 517.869 909.572 526.457 920.165 526.457C930.758 526.457 939.346 517.869 939.346 507.276C939.346 496.683 930.758 488.096 920.165 488.096C909.572 488.096 900.985 496.683 900.985 507.276Z" stroke="#29A6AD" stroke-width="20"/>
<path d="M1027.39 476.661C1027.39 487.254 1035.98 495.842 1046.57 495.842C1057.16 495.842 1065.75 487.254 1065.75 476.661C1065.75 466.068 1057.16 457.481 1046.57 457.481C1035.98 457.481 1027.39 466.068 1027.39 476.661Z" stroke="#29A6AD" stroke-width="20"/>
<path d="M1225.43 483.358C1225.43 494.786 1234.32 503.495 1244.61 503.495C1254.91 503.495 1263.79 494.786 1263.79 483.358C1263.79 471.93 1254.91 463.221 1244.61 463.221C1234.32 463.221 1225.43 471.93 1225.43 483.358Z" stroke="#29A6AD" stroke-width="20"/>
<path d="M1304.84 573.291C1304.84 583.731 1313.49 592.471 1324.5 592.471C1335.51 592.471 1344.16 583.731 1344.16 573.291C1344.16 562.851 1335.51 554.111 1324.5 554.111C1313.49 554.111 1304.84 562.851 1304.84 573.291Z" stroke="#29A6AD" stroke-width="20"/>
<path d="M1208.21 597.209C1208.21 608.637 1217.1 617.346 1227.39 617.346C1237.69 617.346 1246.57 608.637 1246.57 597.209C1246.57 585.781 1237.69 577.072 1227.39 577.072C1217.1 577.072 1208.21 585.781 1208.21 597.209Z" stroke="#29A6AD" stroke-width="20"/>
<path d="M1168.55 541.719C1168.55 553.079 1177.55 562.289 1188.65 562.289C1199.74 562.289 1208.74 553.079 1208.74 541.719C1208.74 530.358 1199.74 521.149 1188.65 521.149C1177.55 521.149 1168.55 530.358 1168.55 541.719Z" fill="#29A6AD"/>
<path d="M1148.46 646.002C1148.46 657.363 1157.46 666.572 1168.56 666.572C1179.65 666.572 1188.65 657.363 1188.65 646.002C1188.65 634.642 1179.65 625.433 1168.56 625.433C1157.46 625.433 1148.46 634.642 1148.46 646.002Z" fill="#29A6AD"/>
<path d="M991.559 646.959C991.559 658.32 1000.55 667.529 1011.65 667.529C1022.75 667.529 1031.74 658.32 1031.74 646.959C1031.74 635.599 1022.75 626.389 1011.65 626.389C1000.55 626.389 991.559 635.599 991.559 646.959Z" fill="#29A6AD"/>
<mask id="path-51-inside-19_77_758" fill="white">
<rect width="19.1346" height="89.9327" rx="2" transform="matrix(-1 0 0 1 929.255 524.019)"/>
</mask>
<rect width="19.1346" height="89.9327" rx="2" transform="matrix(-1 0 0 1 929.255 524.019)" fill="#29A6AD" stroke="#29A6AD" stroke-width="19.1346" mask="url(#path-51-inside-19_77_758)"/>
<mask id="path-52-inside-20_77_758" fill="white">
<rect width="18.1779" height="54.5336" rx="2" transform="matrix(-1 0 0 1 1057.57 491.49)"/>
</mask>
<rect width="18.1779" height="54.5336" rx="2" transform="matrix(-1 0 0 1 1057.57 491.49)" fill="#29A6AD" stroke="#29A6AD" stroke-width="18.1779" mask="url(#path-52-inside-20_77_758)"/>
<mask id="path-53-inside-21_77_758" fill="white">
<rect width="18.1779" height="55.4904" rx="2" transform="matrix(-1 0 0 1 967.524 347.024)"/>
</mask>
<rect width="18.1779" height="55.4904" rx="2" transform="matrix(-1 0 0 1 967.524 347.024)" fill="#29A6AD" stroke="#29A6AD" stroke-width="18.1779" mask="url(#path-53-inside-21_77_758)"/>
<mask id="path-54-inside-22_77_758" fill="white">
<rect width="17.2374" height="136.068" rx="2" transform="matrix(-0.721189 -0.692738 -0.692738 0.721189 968.018 400.227)"/>
</mask>
<rect width="17.2374" height="136.068" rx="2" transform="matrix(-0.721189 -0.692738 -0.692738 0.721189 968.018 400.227)" fill="#29A6AD" stroke="#29A6AD" stroke-width="17.2374" mask="url(#path-54-inside-22_77_758)"/>
<mask id="path-55-inside-23_77_758" fill="white">
<rect width="17.2374" height="137.693" rx="2" transform="matrix(-0.690369 -0.723457 -0.723457 0.690369 1075.61 396.827)"/>
</mask>
<rect width="17.2374" height="137.693" rx="2" transform="matrix(-0.690369 -0.723457 -0.723457 0.690369 1075.61 396.827)" fill="#29A6AD" stroke="#29A6AD" stroke-width="17.2374" mask="url(#path-55-inside-23_77_758)"/>
<mask id="path-56-inside-24_77_758" fill="white">
<rect width="17.2374" height="137.693" rx="2" transform="matrix(-0.703218 -0.710974 -0.710974 0.703218 1174.55 489.362)"/>
</mask>
<rect width="17.2374" height="137.693" rx="2" transform="matrix(-0.703218 -0.710974 -0.710974 0.703218 1174.55 489.362)" fill="#29A6AD" stroke="#29A6AD" stroke-width="17.2374" mask="url(#path-56-inside-24_77_758)"/>
<mask id="path-57-inside-25_77_758" fill="white">
<rect width="17.2374" height="70.7787" rx="2" transform="matrix(0.0110595 -0.999939 -0.999939 -0.0110595 1231.51 495.159)"/>
</mask>
<rect width="17.2374" height="70.7787" rx="2" transform="matrix(0.0110595 -0.999939 -0.999939 -0.0110595 1231.51 495.159)" fill="#29A6AD" stroke="#29A6AD" stroke-width="17.2374" mask="url(#path-57-inside-25_77_758)"/>
<mask id="path-58-inside-26_77_758" fill="white">
<rect width="17.2374" height="70.7787" rx="2" transform="matrix(0.0110595 -0.999939 -0.999939 -0.0110595 1217.16 604.226)"/>
</mask>
<rect width="17.2374" height="70.7787" rx="2" transform="matrix(0.0110595 -0.999939 -0.999939 -0.0110595 1217.16 604.226)" fill="#29A6AD" stroke="#29A6AD" stroke-width="17.2374" mask="url(#path-58-inside-26_77_758)"/>
<mask id="path-59-inside-27_77_758" fill="white">
<rect width="17.2374" height="70.7787" rx="2" transform="matrix(0.0110595 -0.999939 -0.999939 -0.0110595 1181.76 550.649)"/>
</mask>
<rect width="17.2374" height="70.7787" rx="2" transform="matrix(0.0110595 -0.999939 -0.999939 -0.0110595 1181.76 550.649)" fill="#29A6AD" stroke="#29A6AD" stroke-width="17.2374" mask="url(#path-59-inside-27_77_758)"/>
<mask id="path-60-inside-28_77_758" fill="white">
<rect width="17.2374" height="70.7787" rx="2" transform="matrix(0.0110595 -0.999939 -0.999939 -0.0110595 1077.47 586.048)"/>
</mask>
<rect width="17.2374" height="70.7787" rx="2" transform="matrix(0.0110595 -0.999939 -0.999939 -0.0110595 1077.47 586.048)" fill="#29A6AD" stroke="#29A6AD" stroke-width="17.2374" mask="url(#path-60-inside-28_77_758)"/>
<mask id="path-61-inside-29_77_758" fill="white">
<rect width="17.2374" height="137.693" rx="2" transform="matrix(-0.703218 -0.710974 -0.710974 0.703218 1159.91 597.83)"/>
</mask>
<rect width="17.2374" height="137.693" rx="2" transform="matrix(-0.703218 -0.710974 -0.710974 0.703218 1159.91 597.83)" fill="#29A6AD" stroke="#29A6AD" stroke-width="17.2374" mask="url(#path-61-inside-29_77_758)"/>
<mask id="path-62-inside-30_77_758" fill="white">
<rect width="17.2374" height="153.338" rx="2" transform="matrix(-0.703218 -0.710974 -0.710974 0.703218 1319.91 590.138)"/>
</mask>
<rect width="17.2374" height="153.338" rx="2" transform="matrix(-0.703218 -0.710974 -0.710974 0.703218 1319.91 590.138)" fill="#29A6AD" stroke="#29A6AD" stroke-width="17.2374" mask="url(#path-62-inside-30_77_758)"/>
<mask id="path-63-inside-31_77_758" fill="white">
<rect width="17.2374" height="194.575" rx="2" transform="matrix(-0.690369 -0.723457 -0.723457 0.690369 1058.37 544.2)"/>
</mask>
<rect width="17.2374" height="194.575" rx="2" transform="matrix(-0.690369 -0.723457 -0.723457 0.690369 1058.37 544.2)" fill="#29A6AD" stroke="#29A6AD" stroke-width="17.2374" mask="url(#path-63-inside-31_77_758)"/>
<mask id="path-64-inside-32_77_758" fill="white">
<rect width="17.2374" height="105.778" rx="2" transform="matrix(-0.690369 -0.723457 -0.723457 0.690369 1131.24 453.254)"/>
</mask>
<rect width="17.2374" height="105.778" rx="2" transform="matrix(-0.690369 -0.723457 -0.723457 0.690369 1131.24 453.254)" fill="#29A6AD" stroke="#29A6AD" stroke-width="17.2374" mask="url(#path-64-inside-32_77_758)"/>
<mask id="path-65-inside-33_77_758" fill="white">
<rect width="17.2374" height="145.762" rx="2" transform="matrix(-0.99891 -0.0466867 -0.0466867 0.99891 981.451 478.688)"/>
</mask>
<rect width="17.2374" height="145.762" rx="2" transform="matrix(-0.99891 -0.0466867 -0.0466867 0.99891 981.451 478.688)" fill="#29A6AD" stroke="#29A6AD" stroke-width="17.2374" mask="url(#path-65-inside-33_77_758)"/>
<path d="M940.329 1044.78C940.329 1034.19 948.916 1025.6 959.509 1025.6C970.102 1025.6 978.689 1034.19 978.689 1044.78C978.689 1055.38 970.102 1063.96 959.509 1063.96C948.916 1063.96 940.329 1055.38 940.329 1044.78Z" stroke="#29A6AD" stroke-width="20"/>
<path d="M852.192 1202.82C852.192 1192.23 860.779 1183.64 871.372 1183.64C881.965 1183.64 890.553 1192.23 890.553 1202.82C890.553 1213.41 881.965 1222 871.372 1222C860.779 1222 852.192 1213.41 852.192 1202.82Z" stroke="#29A6AD" stroke-width="20"/>
<path d="M1059.92 999.817C1059.92 989.525 1068.63 980.636 1080.06 980.636C1091.49 980.636 1100.19 989.525 1100.19 999.817C1100.19 1010.11 1091.49 1019 1080.06 1019C1068.63 1019 1059.92 1010.11 1059.92 999.817Z" stroke="#29A6AD" stroke-width="20"/>
<path d="M1112.54 938.586C1112.54 927.993 1121.13 919.405 1131.72 919.405C1142.31 919.405 1150.9 927.993 1150.9 938.586C1150.9 949.179 1142.31 957.766 1131.72 957.766C1121.13 957.766 1112.54 949.179 1112.54 938.586Z" stroke="#29A6AD" stroke-width="20"/>
<path d="M902.059 852.48C902.059 841.887 910.647 833.3 921.24 833.3C931.833 833.3 940.42 841.887 940.42 852.48C940.42 863.073 931.833 871.66 921.24 871.66C910.647 871.66 902.059 863.073 902.059 852.48Z" stroke="#29A6AD" stroke-width="20"/>
<path d="M1028.35 896.49C1028.35 885.897 1036.94 877.309 1047.53 877.309C1058.12 877.309 1066.71 885.897 1066.71 896.49C1066.71 907.083 1058.12 915.67 1047.53 915.67C1036.94 915.67 1028.35 907.083 1028.35 896.49Z" stroke="#29A6AD" stroke-width="20"/>
<path d="M1226.39 889.792C1226.39 878.364 1235.28 869.655 1245.57 869.655C1255.86 869.655 1264.75 878.364 1264.75 889.792C1264.75 901.22 1255.86 909.929 1245.57 909.929C1235.28 909.929 1226.39 901.22 1226.39 889.792Z" stroke="#29A6AD" stroke-width="20"/>
<path d="M1305.8 799.86C1305.8 789.419 1314.45 780.679 1325.46 780.679C1336.47 780.679 1345.12 789.419 1345.12 799.86C1345.12 810.3 1336.47 819.04 1325.46 819.04C1314.45 819.04 1305.8 810.3 1305.8 799.86Z" stroke="#29A6AD" stroke-width="20"/>
<path d="M1209.17 775.941C1209.17 764.513 1218.06 755.804 1228.35 755.804C1238.64 755.804 1247.53 764.513 1247.53 775.941C1247.53 787.369 1238.64 796.078 1228.35 796.078C1218.06 796.078 1209.17 787.369 1209.17 775.941Z" stroke="#29A6AD" stroke-width="20"/>
<path d="M1169.51 831.432C1169.51 820.071 1178.51 810.862 1189.6 810.862C1200.7 810.862 1209.69 820.071 1209.69 831.432C1209.69 842.792 1200.7 852.001 1189.6 852.001C1178.51 852.001 1169.51 842.792 1169.51 831.432Z" fill="#29A6AD"/>
<path d="M1149.42 727.148C1149.42 715.788 1158.41 706.579 1169.51 706.579C1180.61 706.579 1189.6 715.788 1189.6 727.148C1189.6 738.509 1180.61 747.718 1169.51 747.718C1158.41 747.718 1149.42 738.509 1149.42 727.148Z" fill="#29A6AD"/>
<path d="M992.516 726.191C992.516 714.831 1001.51 705.622 1012.61 705.622C1023.7 705.622 1032.7 714.831 1032.7 726.191C1032.7 737.552 1023.7 746.761 1012.61 746.761C1001.51 746.761 992.516 737.552 992.516 726.191Z" fill="#29A6AD"/>
<mask id="path-78-inside-34_77_758" fill="white">
<rect x="930.329" y="835.737" width="19.1346" height="89.9327" rx="2" transform="rotate(180 930.329 835.737)"/>
</mask>
<rect x="930.329" y="835.737" width="19.1346" height="89.9327" rx="2" transform="rotate(180 930.329 835.737)" fill="#29A6AD" stroke="#29A6AD" stroke-width="19.1346" mask="url(#path-78-inside-34_77_758)"/>
<mask id="path-79-inside-35_77_758" fill="white">
<rect x="1058.53" y="881.66" width="18.1779" height="54.5336" rx="2" transform="rotate(180 1058.53 881.66)"/>
</mask>
<rect x="1058.53" y="881.66" width="18.1779" height="54.5336" rx="2" transform="rotate(180 1058.53 881.66)" fill="#29A6AD" stroke="#29A6AD" stroke-width="18.1779" mask="url(#path-79-inside-35_77_758)"/>
<mask id="path-80-inside-36_77_758" fill="white">
<rect x="968.598" y="1026.13" width="18.1779" height="55.4904" rx="2" transform="rotate(180 968.598 1026.13)"/>
</mask>
<rect x="968.598" y="1026.13" width="18.1779" height="55.4904" rx="2" transform="rotate(180 968.598 1026.13)" fill="#29A6AD" stroke="#29A6AD" stroke-width="18.1779" mask="url(#path-80-inside-36_77_758)"/>
<mask id="path-81-inside-37_77_758" fill="white">
<rect x="970.101" y="974.095" width="17.2374" height="137.693" rx="2" transform="rotate(136.153 970.101 974.095)"/>
</mask>
<rect x="970.101" y="974.095" width="17.2374" height="137.693" rx="2" transform="rotate(136.153 970.101 974.095)" fill="#29A6AD" stroke="#29A6AD" stroke-width="17.2374" mask="url(#path-81-inside-37_77_758)"/>
<mask id="path-82-inside-38_77_758" fill="white">
<rect x="1076.56" y="976.324" width="17.2374" height="137.693" rx="2" transform="rotate(133.659 1076.56 976.324)"/>
</mask>
<rect x="1076.56" y="976.324" width="17.2374" height="137.693" rx="2" transform="rotate(133.659 1076.56 976.324)" fill="#29A6AD" stroke="#29A6AD" stroke-width="17.2374" mask="url(#path-82-inside-38_77_758)"/>
<mask id="path-83-inside-39_77_758" fill="white">
<rect x="1175.5" y="883.789" width="17.2374" height="137.693" rx="2" transform="rotate(134.686 1175.5 883.789)"/>
</mask>
<rect x="1175.5" y="883.789" width="17.2374" height="137.693" rx="2" transform="rotate(134.686 1175.5 883.789)" fill="#29A6AD" stroke="#29A6AD" stroke-width="17.2374" mask="url(#path-83-inside-39_77_758)"/>
<mask id="path-84-inside-40_77_758" fill="white">
<rect x="1232.46" y="877.992" width="17.2374" height="70.7787" rx="2" transform="rotate(89.3663 1232.46 877.992)"/>
</mask>
<rect x="1232.46" y="877.992" width="17.2374" height="70.7787" rx="2" transform="rotate(89.3663 1232.46 877.992)" fill="#29A6AD" stroke="#29A6AD" stroke-width="17.2374" mask="url(#path-84-inside-40_77_758)"/>
<mask id="path-85-inside-41_77_758" fill="white">
<rect x="1218.11" y="768.925" width="17.2374" height="70.7787" rx="2" transform="rotate(89.3663 1218.11 768.925)"/>
</mask>
<rect x="1218.11" y="768.925" width="17.2374" height="70.7787" rx="2" transform="rotate(89.3663 1218.11 768.925)" fill="#29A6AD" stroke="#29A6AD" stroke-width="17.2374" mask="url(#path-85-inside-41_77_758)"/>
<mask id="path-86-inside-42_77_758" fill="white">
<rect x="1182.71" y="822.502" width="17.2374" height="70.7787" rx="2" transform="rotate(89.3663 1182.71 822.502)"/>
</mask>
<rect x="1182.71" y="822.502" width="17.2374" height="70.7787" rx="2" transform="rotate(89.3663 1182.71 822.502)" fill="#29A6AD" stroke="#29A6AD" stroke-width="17.2374" mask="url(#path-86-inside-42_77_758)"/>
<mask id="path-87-inside-43_77_758" fill="white">
<rect x="1078.43" y="787.103" width="17.2374" height="70.7787" rx="2" transform="rotate(89.3663 1078.43 787.103)"/>
</mask>
<rect x="1078.43" y="787.103" width="17.2374" height="70.7787" rx="2" transform="rotate(89.3663 1078.43 787.103)" fill="#29A6AD" stroke="#29A6AD" stroke-width="17.2374" mask="url(#path-87-inside-43_77_758)"/>
<mask id="path-88-inside-44_77_758" fill="white">
<rect x="1160.87" y="775.32" width="17.2374" height="137.693" rx="2" transform="rotate(134.686 1160.87 775.32)"/>
</mask>
<rect x="1160.87" y="775.32" width="17.2374" height="137.693" rx="2" transform="rotate(134.686 1160.87 775.32)" fill="#29A6AD" stroke="#29A6AD" stroke-width="17.2374" mask="url(#path-88-inside-44_77_758)"/>
<mask id="path-89-inside-45_77_758" fill="white">
<rect x="1320.87" y="783.012" width="17.2374" height="153.338" rx="2" transform="rotate(134.686 1320.87 783.012)"/>
</mask>
<rect x="1320.87" y="783.012" width="17.2374" height="153.338" rx="2" transform="rotate(134.686 1320.87 783.012)" fill="#29A6AD" stroke="#29A6AD" stroke-width="17.2374" mask="url(#path-89-inside-45_77_758)"/>
<mask id="path-90-inside-46_77_758" fill="white">
<rect x="1059.33" y="828.951" width="17.2374" height="194.575" rx="2" transform="rotate(133.659 1059.33 828.951)"/>
</mask>
<rect x="1059.33" y="828.951" width="17.2374" height="194.575" rx="2" transform="rotate(133.659 1059.33 828.951)" fill="#29A6AD" stroke="#29A6AD" stroke-width="17.2374" mask="url(#path-90-inside-46_77_758)"/>
<mask id="path-91-inside-47_77_758" fill="white">
<rect x="1132.2" y="919.896" width="17.2374" height="105.778" rx="2" transform="rotate(133.659 1132.2 919.896)"/>
</mask>
<rect x="1132.2" y="919.896" width="17.2374" height="105.778" rx="2" transform="rotate(133.659 1132.2 919.896)" fill="#29A6AD" stroke="#29A6AD" stroke-width="17.2374" mask="url(#path-91-inside-47_77_758)"/>
<mask id="path-92-inside-48_77_758" fill="white">
<rect x="982.408" y="894.463" width="17.2374" height="137.693" rx="2" transform="rotate(177.324 982.408 894.463)"/>
</mask>
<rect x="982.408" y="894.463" width="17.2374" height="137.693" rx="2" transform="rotate(177.324 982.408 894.463)" fill="#29A6AD" stroke="#29A6AD" stroke-width="17.2374" mask="url(#path-92-inside-48_77_758)"/>
<path d="M804.448 1038.26C804.448 1027.67 795.86 1019.08 785.267 1019.08C774.674 1019.08 766.087 1027.67 766.087 1038.26C766.087 1048.85 774.674 1057.44 785.267 1057.44C795.86 1057.44 804.448 1048.85 804.448 1038.26Z" stroke="#29A6AD" stroke-width="20"/>
<path d="M684.856 993.296C684.856 983.004 676.147 974.115 664.719 974.115C653.291 974.115 644.582 983.004 644.582 993.296C644.582 1003.59 653.291 1012.48 664.719 1012.48C676.147 1012.48 684.856 1003.59 684.856 993.296Z" stroke="#29A6AD" stroke-width="20"/>
<path d="M632.236 932.065C632.236 921.472 623.648 912.884 613.055 912.884C602.462 912.884 593.875 921.472 593.875 932.065C593.875 942.658 602.462 951.245 613.055 951.245C623.648 951.245 632.236 942.658 632.236 932.065Z" stroke="#29A6AD" stroke-width="20"/>
<path d="M842.716 852.656C842.716 842.063 834.129 833.476 823.536 833.476C812.943 833.476 804.356 842.063 804.356 852.656C804.356 863.249 812.943 871.836 823.536 871.836C834.129 871.836 842.716 863.249 842.716 852.656Z" stroke="#29A6AD" stroke-width="20"/>
<path d="M716.428 889.969C716.428 879.376 707.841 870.789 697.248 870.789C686.655 870.789 678.067 879.376 678.067 889.969C678.067 900.562 686.655 909.149 697.248 909.149C707.841 909.149 716.428 900.562 716.428 889.969Z" stroke="#29A6AD" stroke-width="20"/>
<path d="M518.385 883.272C518.385 871.844 509.496 863.135 499.205 863.135C488.913 863.135 480.025 871.844 480.025 883.272C480.025 894.699 488.913 903.409 499.205 903.409C509.496 903.409 518.385 894.699 518.385 883.272Z" stroke="#29A6AD" stroke-width="20"/>
<path d="M438.976 793.339C438.976 782.898 430.328 774.158 419.317 774.158C408.306 774.158 399.658 782.898 399.658 793.339C399.658 803.779 408.306 812.519 419.317 812.519C430.328 812.519 438.976 803.779 438.976 793.339Z" stroke="#29A6AD" stroke-width="20"/>
<path d="M412.188 676.617C412.188 666.326 403.479 657.437 392.051 657.437C380.623 657.437 371.914 666.326 371.914 676.617C371.914 686.909 380.623 695.798 392.051 695.798C403.479 695.798 412.188 686.909 412.188 676.617Z" stroke="#29A6AD" stroke-width="20"/>
<mask id="path-101-inside-49_77_758" fill="white">
<rect width="17.2374" height="415.989" rx="2" transform="matrix(0.0110595 -0.999939 -0.999939 -0.0110595 1333.99 697.985)"/>
</mask>
<rect width="17.2374" height="415.989" rx="2" transform="matrix(0.0110595 -0.999939 -0.999939 -0.0110595 1333.99 697.985)" fill="#29A6AD" stroke="#29A6AD" stroke-width="17.2374" mask="url(#path-101-inside-49_77_758)"/>
<path d="M1333.66 686.185C1333.66 675.894 1342.37 667.005 1353.79 667.005C1365.22 667.005 1373.93 675.894 1373.93 686.185C1373.93 696.476 1365.22 705.365 1353.79 705.365C1342.37 705.365 1333.66 696.476 1333.66 686.185Z" stroke="#29A6AD" stroke-width="20"/>
<path d="M535.606 769.42C535.606 757.993 526.717 749.283 516.426 749.283C506.134 749.283 497.245 757.993 497.245 769.42C497.245 780.848 506.134 789.558 516.426 789.558C526.717 789.558 535.606 780.848 535.606 769.42Z" stroke="#29A6AD" stroke-width="20"/>
<path d="M575.265 824.911C575.265 813.551 566.27 804.341 555.173 804.341C544.077 804.341 535.082 813.551 535.082 824.911C535.082 836.271 544.077 845.481 555.173 845.481C566.27 845.481 575.265 836.271 575.265 824.911Z" fill="#29A6AD"/>
<path d="M595.356 720.627C595.356 709.267 586.36 700.058 575.264 700.058C564.168 700.058 555.173 709.267 555.173 720.627C555.173 731.988 564.168 741.197 575.264 741.197C586.36 741.197 595.356 731.988 595.356 720.627Z" fill="#29A6AD"/>
<mask id="path-106-inside-50_77_758" fill="white">
<rect width="19.1346" height="89.9327" rx="2" transform="matrix(1 0 0 -1 814.447 835.914)"/>
</mask>
<rect width="19.1346" height="89.9327" rx="2" transform="matrix(1 0 0 -1 814.447 835.914)" fill="#29A6AD" stroke="#29A6AD" stroke-width="19.1346" mask="url(#path-106-inside-50_77_758)"/>
<mask id="path-107-inside-51_77_758" fill="white">
<rect width="18.1779" height="54.5336" rx="2" transform="matrix(1 0 0 -1 686.245 875.139)"/>
</mask>
<rect width="18.1779" height="54.5336" rx="2" transform="matrix(1 0 0 -1 686.245 875.139)" fill="#29A6AD" stroke="#29A6AD" stroke-width="18.1779" mask="url(#path-107-inside-51_77_758)"/>
<mask id="path-108-inside-52_77_758" fill="white">
<rect width="18.1779" height="55.4904" rx="2" transform="matrix(1 0 0 -1 776.178 1019.61)"/>
</mask>
<rect width="18.1779" height="55.4904" rx="2" transform="matrix(1 0 0 -1 776.178 1019.61)" fill="#29A6AD" stroke="#29A6AD" stroke-width="18.1779" mask="url(#path-108-inside-52_77_758)"/>
<mask id="path-109-inside-53_77_758" fill="white">
<rect width="17.2374" height="137.693" rx="2" transform="matrix(0.721189 0.692738 0.692738 -0.721189 774.676 967.574)"/>
</mask>
<rect width="17.2374" height="137.693" rx="2" transform="matrix(0.721189 0.692738 0.692738 -0.721189 774.676 967.574)" fill="#29A6AD" stroke="#29A6AD" stroke-width="17.2374" mask="url(#path-109-inside-53_77_758)"/>
<mask id="path-110-inside-54_77_758" fill="white">
<rect width="17.2374" height="137.693" rx="2" transform="matrix(0.690369 0.723457 0.723457 -0.690369 668.212 969.803)"/>
</mask>
<rect width="17.2374" height="137.693" rx="2" transform="matrix(0.690369 0.723457 0.723457 -0.690369 668.212 969.803)" fill="#29A6AD" stroke="#29A6AD" stroke-width="17.2374" mask="url(#path-110-inside-54_77_758)"/>
<mask id="path-111-inside-55_77_758" fill="white">
<rect width="17.2374" height="137.693" rx="2" transform="matrix(0.703218 0.710974 0.710974 -0.703218 569.271 877.268)"/>
</mask>
<rect width="17.2374" height="137.693" rx="2" transform="matrix(0.703218 0.710974 0.710974 -0.703218 569.271 877.268)" fill="#29A6AD" stroke="#29A6AD" stroke-width="17.2374" mask="url(#path-111-inside-55_77_758)"/>
<mask id="path-112-inside-56_77_758" fill="white">
<rect width="17.2374" height="70.7787" rx="2" transform="matrix(-0.0110595 0.999939 0.999939 0.0110595 512.311 871.471)"/>
</mask>
<rect width="17.2374" height="70.7787" rx="2" transform="matrix(-0.0110595 0.999939 0.999939 0.0110595 512.311 871.471)" fill="#29A6AD" stroke="#29A6AD" stroke-width="17.2374" mask="url(#path-112-inside-56_77_758)"/>
<mask id="path-113-inside-57_77_758" fill="white">
<rect width="17.2374" height="70.7787" rx="2" transform="matrix(-0.0110595 0.999939 0.999939 0.0110595 526.662 762.404)"/>
</mask>
<rect width="17.2374" height="70.7787" rx="2" transform="matrix(-0.0110595 0.999939 0.999939 0.0110595 526.662 762.404)" fill="#29A6AD" stroke="#29A6AD" stroke-width="17.2374" mask="url(#path-113-inside-57_77_758)"/>
<mask id="path-114-inside-58_77_758" fill="white">
<rect width="17.2374" height="70.7787" rx="2" transform="matrix(-0.0110595 0.999939 0.999939 0.0110595 562.061 815.981)"/>
</mask>
<rect width="17.2374" height="70.7787" rx="2" transform="matrix(-0.0110595 0.999939 0.999939 0.0110595 562.061 815.981)" fill="#29A6AD" stroke="#29A6AD" stroke-width="17.2374" mask="url(#path-114-inside-58_77_758)"/>
<mask id="path-115-inside-59_77_758" fill="white">
<rect width="17.2374" height="70.7787" rx="2" transform="matrix(-0.0110595 0.999939 0.999939 0.0110595 666.345 780.582)"/>
</mask>
<rect width="17.2374" height="70.7787" rx="2" transform="matrix(-0.0110595 0.999939 0.999939 0.0110595 666.345 780.582)" fill="#29A6AD" stroke="#29A6AD" stroke-width="17.2374" mask="url(#path-115-inside-59_77_758)"/>
<mask id="path-116-inside-60_77_758" fill="white">
<rect width="17.2374" height="137.693" rx="2" transform="matrix(0.703218 0.710974 0.710974 -0.703218 583.907 768.799)"/>
</mask>
<rect width="17.2374" height="137.693" rx="2" transform="matrix(0.703218 0.710974 0.710974 -0.703218 583.907 768.799)" fill="#29A6AD" stroke="#29A6AD" stroke-width="17.2374" mask="url(#path-116-inside-60_77_758)"/>
<mask id="path-117-inside-61_77_758" fill="white">
<rect width="17.2374" height="153.338" rx="2" transform="matrix(0.703218 0.710974 0.710974 -0.703218 423.908 776.491)"/>
</mask>
<rect width="17.2374" height="153.338" rx="2" transform="matrix(0.703218 0.710974 0.710974 -0.703218 423.908 776.491)" fill="#29A6AD" stroke="#29A6AD" stroke-width="17.2374" mask="url(#path-117-inside-61_77_758)"/>
<mask id="path-118-inside-62_77_758" fill="white">
<rect width="17.2374" height="176.523" rx="2" transform="matrix(0.690369 0.723457 0.723457 -0.690369 685.445 822.43)"/>
</mask>
<rect width="17.2374" height="176.523" rx="2" transform="matrix(0.690369 0.723457 0.723457 -0.690369 685.445 822.43)" fill="#29A6AD" stroke="#29A6AD" stroke-width="17.2374" mask="url(#path-118-inside-62_77_758)"/>
<mask id="path-119-inside-63_77_758" fill="white">
<rect width="17.2374" height="105.778" rx="2" transform="matrix(0.690369 0.723457 0.723457 -0.690369 612.577 913.375)"/>
</mask>
<rect width="17.2374" height="105.778" rx="2" transform="matrix(0.690369 0.723457 0.723457 -0.690369 612.577 913.375)" fill="#29A6AD" stroke="#29A6AD" stroke-width="17.2374" mask="url(#path-119-inside-63_77_758)"/>
<mask id="path-120-inside-64_77_758" fill="white">
<rect width="17.2374" height="137.693" rx="2" transform="matrix(0.99891 0.0466867 0.0466867 -0.99891 762.368 887.942)"/>
</mask>
<rect width="17.2374" height="137.693" rx="2" transform="matrix(0.99891 0.0466867 0.0466867 -0.99891 762.368 887.942)" fill="#29A6AD" stroke="#29A6AD" stroke-width="17.2374" mask="url(#path-120-inside-64_77_758)"/>
</mask>
<g mask="url(#mask0_77_758)">
<path d="M1472.5 681.5C1262 976.5 1195 900 861 1283.5C682.5 967.5 360.5 991 314.5 681.5C395.5 385 574.5 394 893.5 136C984 259 1294.5 379 1472.5 681.5Z" fill="url(#paint0_radial_77_758)"/>
</g>
<defs>
<filter id="filter0_i_77_758" x="979.091" y="1108.64" width="853.216" height="95.6362" filterUnits="userSpaceOnUse" color-interpolation-filters="sRGB">
<feFlood flood-opacity="0" result="BackgroundImageFix"/>
<feBlend mode="normal" in="SourceGraphic" in2="BackgroundImageFix" result="shape"/>
<feColorMatrix in="SourceAlpha" type="matrix" values="0 0 0 0 0 0 0 0 0 0 0 0 0 0 0 0 0 0 127 0" result="hardAlpha"/>
<feOffset/>
<feGaussianBlur stdDeviation="3.05"/>
<feComposite in2="hardAlpha" operator="arithmetic" k2="-1" k3="1"/>
<feColorMatrix type="matrix" values="0 0 0 0 0 0 0 0 0 0 0 0 0 0 0 0 0 0 0.3 0"/>
<feBlend mode="normal" in2="shape" result="effect1_innerShadow_77_758"/>
</filter>
<radialGradient id="paint0_radial_77_758" cx="0" cy="0" r="1" gradientUnits="userSpaceOnUse" gradientTransform="translate(878.5 695.5) rotate(90.9624) scale(506.071 537.15)">
<stop offset="0.475" stop-color="#2FA6AC"/>
<stop offset="1" stop-color="#F63A48"/>
</radialGradient>
</defs>
</svg>
